pedal_clip_forces.mot
version=1
nRows=242
nColumns=4
inDegrees=yes
endheader
time	PedalClip_calcn_r_Fx	PedalClip_calcn_r_Fy	PedalClip_calcn_r_Fz
0.34560859	40.5685994946006	-475.553387137036	-0
0.34679846	38.3534577736697	-465.396344430632	-0
0.34779302	36.2334097139115	-455.523783098155	-0
0.34878758	34.1977331512755	-445.938514340595	-0
0.3498221	32.2407093648456	-436.651765846927	-0
0.35085662	30.3638292024107	-427.685387395595	-0
0.35165022	28.5629896927631	-419.040173335546	-0
0.35244381	26.8329516908046	-410.723324734372	-0
0.35386242	25.1647360901004	-402.703252617737	-0
0.35528102	23.5586079722532	-394.995618026456	-0
0.35606043	22.0114756607031	-387.577133903119	-0
0.35683983	20.5164092049134	-380.398017909547	-0
0.35764562	19.0718937437016	-373.446935856149	-0
0.3584514	17.6781567121141	-366.729133670852	-0
0.35919301	16.338170147627	-360.261528749552	-0
0.35993462	15.0513448537377	-354.043315515396	-0
0.36072328	13.8188626801601	-348.079397701767	-0
0.36151195	12.6463347014815	-342.402699980255	-0
0.3621941	11.539225897683	-337.060290892502	-0
0.36287626	10.4948319578279	-332.084986827613	-0
0.36374327	9.5057312120265	-327.523476805849	-0
0.36461028	8.56129856382421	-323.378687749531	-0
0.36522714	7.65210861455109	-319.429633200525	-0
0.36584401	6.77583874986444	-315.445402571541	-0
0.3667381	5.93287417849831	-311.518954525851	-0
0.36763219	5.12157052178718	-307.69355608433	-0
0.36824517	4.33819471350049	-303.971454234423	-0
0.36885815	3.57648084765653	-300.355291008654	-0
0.36987542	2.82494165628013	-296.843606233641	-0
0.37089268	2.08199244544051	-293.430623315605	-0
0.3715735	1.34801425710864	-290.10865463047	-0
0.37225432	0.626313091374752	-286.870895903132	-0
0.37294744	-0.082195615024366	-283.712746191599	-0
0.37364056	-0.777244737742701	-280.632034503551	-0
0.37424315	-1.45866101530237	-277.628495482803	-0
0.37484574	-2.12632646609753	-274.702717255673	-0
0.37565917	-2.78030486268396	-271.854865268	-0
0.3764726	-3.42120297635399	-269.082976100308	-0
0.37703678	-4.0503490681996	-266.38162885868	-0
0.37760095	-4.66941391527157	-263.742930748995	-0
0.37835047	-5.27906556099366	-261.162579705009	-0
0.37909998	-5.87810509713768	-258.644985393601	-0
0.37984949	-6.46621099621176	-256.1900395302	-0
0.380599	-7.04335571614032	-253.796098828905	-0
0.38134851	-7.6093872353677	-251.463152534052	-0
0.38209802	-8.16427660225047	-249.190965740114	-0
0.38284753	-8.70802824600131	-246.9797225377	-0
0.38359705	-9.240716498127	-244.829235404188	-0
0.38434656	-9.76243482412005	-242.73938488842	-0
0.38509607	-10.2732036506136	-240.710061041869	-0
0.38575061	-10.7729857659443	-238.741172382593	-0
0.38640514	-11.2617214328735	-236.83258684727	-0
0.38705968	-11.739392237399	-234.983853791234	-0
0.38771421	-12.2060637271225	-233.194040323198	-0
0.38836875	-12.6618939656481	-231.461873447365	-0
0.38902329	-13.1074649945291	-229.784112801039	-0
0.38967782	-13.5436323966276	-228.156660148309	-0
0.39033236	-13.9713537821014	-226.575275374494	-0
0.39098689	-14.391216704535	-225.038085891022	-0
0.39164143	-14.8034549807123	-223.544966349498	-0
0.39229597	-15.2084417017298	-222.094748725089	-0
0.3929505	-15.6064895783966	-220.68613015982	-0
0.39360504	-15.9980096023886	-219.31751198747	-0
0.39425957	-16.3834103328922	-217.987192388872	-0
0.39491411	-16.7633405468583	-216.692510506985	-0
0.39556865	-17.1384897052764	-215.429893251187	-0
0.39622318	-17.509346173573	-214.196310363973	-0
0.39687772	-17.8763787326866	-212.988860947273	-0
0.39753225	-18.2398797570753	-211.805450673763	-0
0.39818679	-18.5998864567891	-210.645417195088	-0
0.39884133	-18.9561859001909	-209.509043771038	-0
0.39949586	-19.3088046003502	-208.396218443482	-0
0.4001504	-19.6577464944812	-207.307443954624	-0
0.40080493	-20.0031941057195	-206.24240269051	-0
0.40145947	-20.3455592399741	-205.19992633191	-0
0.40211401	-20.685197719858	-204.178579567108	-0
0.40276854	-21.022226995724	-203.177492622531	-0
0.40342308	-21.3568142323044	-202.19461460716	-0
0.40407762	-21.6891049535902	-201.227560843245	-0
0.40473215	-22.0193746819851	-200.273766669346	-0
0.40538669	-22.3479016583345	-199.332027033545	-0
0.40604122	-22.6749098885901	-198.402623029173	-0
0.40669576	-23.0005239341347	-197.486742299704	-0
0.4073503	-23.324780945205	-196.585427951591	-0
0.40800483	-23.6476248412775	-195.699235760134	-0
0.40865937	-23.9689338976591	-194.828303365532	-0
0.4093139	-24.2885746519461	-193.972607518708	-0
0.40996844	-24.6064677424864	-193.132061832914	-0
0.41062298	-24.9226205130937	-192.306491213292	-0
0.41127751	-25.2370974565854	-191.495702526985	-0
0.41193205	-25.549979455944	-190.69951740132	-0
0.41258658	-25.8613045866555	-189.917883517032	-0
0.41324112	-26.1710245501914	-189.150846768341	-0
0.41377303	-26.4789360733801	-188.398560322452	-0
0.41430494	-26.78464245476	-187.661251951528	-0
0.4153735	-27.0875268477405	-186.939182755048	-0
0.41644206	-27.3868170562139	-186.232535211239	-0
0.41751062	-27.6817081034692	-185.541313145737	-0
0.41812825	-27.9715227537856	-184.865299133385	-0
0.41874587	-28.2558141516158	-184.204130001678	-0
0.41928847	-28.5344244817253	-183.557280584023	-0
0.41983108	-28.8074533283506	-182.92416171506	-0
0.42041486	-29.0751992113804	-182.304174779043	-0
0.42099864	-29.3380524962859	-181.696805651136	-0
0.4214762	-29.5964214959614	-181.10162827429	-0
0.42195376	-29.8506561215801	-180.51838768685	-0
0.42249956	-30.1010266884106	-179.946969374081	-0
0.42304536	-30.3476831856564	-179.38759485329	-0
0.42359117	-30.5907225478327	-178.840428225966	-0
0.42413697	-30.8301738025757	-178.3056153347	-0
0.42468277	-31.0661207863852	-177.782549765804	-0
0.42522857	-31.2989284342453	-177.268864401715	-0
0.42577437	-31.5291883149384	-176.761871236786	-0
0.42632017	-31.7575180130122	-176.260517219633	-0
0.42686597	-31.9842704279542	-175.765532375363	-0
0.42741178	-32.2096695809271	-175.277233929808	-0
0.42795758	-32.4340109629196	-174.795452021847	-0
0.42850338	-32.6576147540973	-174.320027246954	-0
0.42904918	-32.8804538310433	-173.851338511218	-0
0.42959498	-33.102388370265	-173.389450976418	-0
0.43014078	-33.3234174544799	-172.934278178438	-0
0.43068658	-33.5435288356658	-172.485739872442	-0
0.43123239	-33.7625371616253	-172.043971802068	-0
0.43177819	-33.9804125577493	-171.609060163339	-0
0.43232399	-34.1972172098094	-171.180846890325	-0
0.43286979	-34.4130225811035	-170.758769702914	-0
0.43341559	-34.6279990866241	-170.341776128736	-0
0.43396139	-34.8422903648402	-169.929172142659	-0
0.43450719	-35.0560208663335	-169.520724106064	-0
0.435053	-35.2692786235243	-169.11653088865	-0
0.4355988	-35.4821728214883	-168.716349443063	-0
0.4361446	-35.6947623551069	-168.319868343559	-0
0.4366904	-35.9070534471912	-167.92672313951	-0
0.4372362	-36.1189955153429	-167.536627722771	-0
0.437782	-36.3305031347191	-167.149344771977	-0
0.4383278	-36.5414552209205	-166.764822681317	-0
0.4388736	-36.7517393318426	-166.38296598606	-0
0.43941941	-36.961236194587	-166.003783137869	-0
0.43996521	-37.1698396315746	-165.627242984777	-0
0.44051101	-37.3774360465473	-165.253410713471	-0
0.44105681	-37.5839380653954	-164.882200742095	-0
0.44181588	-37.7892602527882	-164.513552216948	-0
0.44232265	-37.9933249108158	-164.147374585441	-0
0.44277879	-38.1960342615832	-163.783735226587	-0
0.44323492	-38.3973146026566	-163.422544926553	-0
0.44381073	-38.5970801944443	-163.063852800742	-0
0.44438655	-38.7952498154837	-162.707831426107	-0
0.44496237	-38.9917504575941	-162.354790091324	-0
0.44553818	-39.1865290666734	-162.00506870887	-0
0.446114	-39.3795503998271	-161.659026316316	-0
0.44655067	-39.5708173627937	-161.316798458401	-0
0.44698734	-39.7603521416144	-160.978485671674	-0
0.44749632	-39.9482245746865	-160.643936823004	-0
0.44800531	-40.1345047670726	-160.313125489356	-0
0.44851429	-40.3192710961963	-159.986079199764	-0
0.44902328	-40.5026004599248	-159.66292861009	-0
0.44953226	-40.6845994278806	-159.34368907501	-0
0.45004125	-40.8653537984206	-159.028587255201	-0
0.45055023	-41.0450323351848	-158.717355580558	-0
0.45105922	-41.2238486552859	-158.409464375985	-0
0.4515682	-41.401977269637	-158.104584813667	-0
0.45207719	-41.5796215589854	-157.801993439999	-0
0.45258617	-41.7569458867346	-157.500984889355	-0
0.45309516	-41.9340764741717	-157.200810446726	-0
0.45360414	-42.1109925305897	-156.901468130613	-0
0.45411313	-42.287607841986	-156.603221562132	-0
0.45462211	-42.4638365544682	-156.306380628085	-0
0.4551311	-42.6396802391798	-156.010886698396	-0
0.45564008	-42.8150713682536	-155.717161851207	-0
0.45614907	-42.9899539061698	-155.425537478981	-0
0.45665805	-43.1642016181127	-155.136297371467	-0
0.45716704	-43.3377844459118	-154.848985163835	-0
0.45767602	-43.5107358788745	-154.563031554276	-0
0.45818501	-43.6830923055356	-154.278228411288	-0
0.45869399	-43.8549271566418	-153.994378917446	-0
0.45920298	-44.026250759916	-153.711539604215	-0
0.45971196	-44.1970457692851	-153.429836431677	-0
0.46022095	-44.3672747904168	-153.149543494727	-0
0.46072994	-44.5369313821527	-152.870693894851	-0
0.46123892	-44.7060021307233	-152.593320702887	-0
0.46174791	-44.8744064696235	-152.317810505395	-0
0.46225689	-45.04205618165	-152.044542409427	-0
0.46276588	-45.2089244613987	-151.773501944713	-0
0.46327486	-45.3750223581396	-151.504571435569	-0
0.46378385	-45.5404087747572	-151.237469857956	-0
0.46429283	-45.7051665175178	-150.971875160947	-0
0.46480182	-45.8694065363827	-150.707355258641	-0
0.4653108	-46.0332462011349	-150.443459246758	-0
0.46581979	-46.1967989851225	-150.17976617592	-0
0.46632877	-46.3601483288868	-149.916023188071	-0
0.46683776	-46.5233622538519	-149.652022636351	-0
0.46734674	-46.6864846733389	-149.387631577459	-0
0.46785573	-46.8495336287723	-149.122803961723	-0
0.46836471	-47.0125115500676	-148.857706192111	-0
0.4688737	-47.1754950173996	-148.592497678074	-0
0.46938268	-47.338524108198	-148.327223855219	-0
0.46989167	-47.5014967470451	-148.061858870073	-0
0.47040065	-47.6643503362614	-147.795906389605	-0
0.47090964	-47.8270739683894	-147.528468630466	-0
0.47141862	-47.9895813334893	-147.2591133473	-0
0.47192761	-48.1516394720281	-146.988288536904	-0
0.47243659	-48.3130307074789	-146.71683093952	-0
0.47294558	-48.4735502116542	-146.446230795088	-0
0.47355666	-48.63303882505	-146.177887589344	-0
0.47416775	-48.7913162395482	-145.913368187451	-0
0.47466713	-48.9482903558198	-145.65388394692	-0
0.4751665	-49.1039435743936	-145.400019632085	-0
0.47566588	-49.2582145590111	-145.152427152582	-0
0.47616525	-49.4109974485737	-144.911675386338	-0
0.47666462	-49.5621755637489	-144.678036600617	-0
0.477164	-49.7116388369294	-144.451657048738	-0
0.47766337	-49.8592397943522	-144.232634621474	-0
0.47816274	-50.00487805688	-144.021591757874	-0
0.47866212	-50.1484935549457	-143.819009558878	-0
0.47916149	-50.290136239538	-143.625258043965	-0
0.47966087	-50.4298878307852	-143.440336061787	-0
0.48016024	-50.5677964460447	-143.264732966591	-0
0.48065961	-50.7039959194716	-143.098594024073	-0
0.48115899	-50.8385860529696	-142.941209485682	-0
0.48157488	-50.9717407106312	-142.791550598602	-0
0.48199077	-51.1036309298945	-142.648219355891	-0
0.48250035	-51.2345346484612	-142.510048667844	-0
0.48300993	-51.3647664032174	-142.37556844591	-0
0.48342848	-51.4946085878507	-142.243007729779	-0
0.48384704	-51.6242213629995	-142.110465482523	-0
0.48437355	-51.7537421050228	-141.976904391525	-0
0.48490006	-51.8832798818579	-141.841716387364	-0
0.4853095	-52.0128913987467	-141.704475768116	-0
0.48571895	-52.1426144388866	-141.564589679169	-0
0.48621765	-52.2725026902256	-141.421096482169	-0
0.486827	-52.402596427295	-141.273117601514	-0
0.48725223	-52.5328400615489	-141.120201320292	-0
0.48767745	-52.6630719328803	-140.962280673731	-0
0.48810317	-52.7931733727579	-140.799428205575	-0
0.48852936	-52.9230432424281	-140.632003461621	-0
0.48895555	-53.0525952740176	-140.460602707457	-0
0.48948417	-53.1817131549968	-140.286636916135	-0
0.49001279	-53.3103239611923	-140.11131890269	-0
0.49042681	-53.4383226227964	-139.935857261949	-0
0.49084083	-53.5657369488425	-139.760678915838	-0
0.49121847	-53.6926529097555	-139.585815060613	-0
0.49183848	-53.819204819069	-139.410274993816	-0
